<svg width="577" height="448" viewBox="0 0 577 448" fill="none" xmlns="http://www.w3.org/2000/svg">
<path d="M32 64H544C561.7 64 576 49.7 576 32C576 14.3 561.7 0 544 0H32C14.3 0 0 14.3 0 32C0 49.7 14.3 64 32 64ZM9.4 201.4C-3.1 213.9 -3.1 234.2 9.4 246.7C21.9 259.2 42.2 259.2 54.7 246.7L96 205.3V416C96 433.7 110.3 448 128 448C145.7 448 160 433.7 160 416V205.3L201.4 246.7C213.9 259.2 234.2 259.2 246.7 246.7C259.2 234.2 259.2 213.9 246.7 201.4L150.7 105.4C138.2 92.9 117.9 92.9 105.4 105.4L9.4 201.4V201.4ZM329.4 246.7C341.9 259.2 362.2 259.2 374.7 246.7L416 205.3V416C416 433.7 430.3 448 448 448C465.7 448 480 433.7 480 416V205.3L521.4 246.7C533.9 259.2 554.2 259.2 566.7 246.7C579.2 234.2 579.2 213.9 566.7 201.4L470.7 105.4C458.2 92.9 437.9 92.9 425.4 105.4L329.4 201.4C316.9 213.9 316.9 234.2 329.4 246.7V246.7Z" fill="white"/>
</svg>
