<svg width="512" height="512" viewBox="0 0 512 512" fill="none" xmlns="http://www.w3.org/2000/svg">
<path d="M384 298.667H320V213.334C320 201.552 310.449 192.001 298.667 192.001H213.334C201.551 192 192 201.551 192 213.333V298.666H128C110.42 298.666 100.386 318.736 110.933 332.799L238.933 503.466C247.466 514.844 264.533 514.844 273.066 503.466L401.066 332.799C411.614 318.736 401.58 298.667 384 298.667ZM256 455.111L170.667 341.333H213.334C225.116 341.333 234.667 331.782 234.667 320V234.667H277.334V320C277.334 331.782 286.885 341.333 298.667 341.333H341.334L256 455.111Z" fill="white"/>
<path d="M213.333 170.667H298.666C310.448 170.667 319.999 161.116 319.999 149.334C319.999 137.552 310.448 128.001 298.666 128.001H213.333C201.551 128 192 137.551 192 149.333C192 161.115 201.551 170.667 213.333 170.667Z" fill="white"/>
<path d="M213.333 106.667H298.666C310.448 106.667 319.999 97.116 319.999 85.334C320 73.551 310.449 64 298.667 64H213.334C201.551 64 192 73.551 192 85.333C192 97.115 201.551 106.667 213.333 106.667Z" fill="white"/>
<path d="M213.333 42.667H298.666C310.448 42.667 319.999 33.116 319.999 21.334C320 9.551 310.449 0 298.667 0H213.334C201.551 0 192 9.551 192 21.333C192 33.115 201.551 42.667 213.333 42.667Z" fill="white"/>
</svg>
