<svg width="576" height="448" viewBox="0 0 576 448" fill="none" xmlns="http://www.w3.org/2000/svg">
<path d="M0 80.5V390.3C0 408.3 10.1 425.3 27 431.6C114 464.1 201 441.9 288 419.7C367.8 399.4 447.6 379 527.3 400.8C550.3 407.1 576 391.3 576 367.4V57.7C576 39.7 565.9 22.7 549 16.4C462 -16.1 375 6.10003 288 28.3C208.2 48.6 128.4 68.9 48.7 47.1C25.6 40.8 0 56.6 0 80.5ZM288 320C243.8 320 208 277 208 224C208 171 243.8 128 288 128C332.2 128 368 171 368 224C368 277 332.2 320 288 320ZM64 320C99.3 320 128 348.7 128 384H64V320ZM128 112C128 147.3 99.3 176 64 176V112H128ZM512 272V336H448C448 300.7 476.7 272 512 272ZM448 64H512V128C476.7 128 448 99.3 448 64Z" fill="white"/>
</svg>
