<svg width="254" height="254" viewBox="0 0 254 254" fill="none" xmlns="http://www.w3.org/2000/svg">
<path d="M126.856 253.307C57.132 253.307 0.406494 196.581 0.406494 126.857C87.9661 102.095 172.539 100.007 253.306 126.857C253.306 196.581 196.581 253.307 126.856 253.307Z" fill="white"/>
<path d="M126.856 0.406494C57.132 0.406494 0.406494 57.132 0.406494 126.856H253.306C253.306 57.132 196.581 0.406494 126.856 0.406494Z" fill="white"/>
<path d="M179.923 133.39L138.29 157.426L96.6573 181.463C91.6274 184.366 85.3442 180.738 85.3442 174.93V126.856C115.147 115.066 148.173 116.024 183.694 126.856C183.694 129.397 182.438 131.937 179.923 133.39Z" fill="#131313"/>
<path d="M179.923 120.323L138.29 96.2864L96.6573 72.2497C91.6274 69.347 85.3442 72.9747 85.3442 78.783V126.856H183.694C183.694 124.316 182.438 121.776 179.923 120.323Z" fill="#020202"/>
</svg>
